<svg xmlns="http://www.w3.org/2000/svg" viewBox="0 0 12 8" shape-rendering="crispEdges"><rect x="2" y="0" width="8" height="1" fill="#0d0f1a"/><rect x="1" y="1" width="1" height="1" fill="#0d0f1a"/><rect x="2" y="1" width="1" height="1" fill="#7ada3a"/><rect x="3" y="1" width="4" height="1" fill="#3a9a1a"/><rect x="7" y="1" width="1" height="1" fill="#7ada3a"/><rect x="8" y="1" width="2" height="1" fill="#3a9a1a"/><rect x="10" y="1" width="1" height="1" fill="#0d0f1a"/><rect x="1" y="2" width="1" height="1" fill="#0d0f1a"/><rect x="2" y="2" width="1" height="1" fill="#3a9a1a"/><rect x="3" y="2" width="1" height="1" fill="#080f04"/><rect x="4" y="2" width="2" height="1" fill="#3a9a1a"/><rect x="6" y="2" width="1" height="1" fill="#080f04"/><rect x="7" y="2" width="3" height="1" fill="#3a9a1a"/><rect x="10" y="2" width="1" height="1" fill="#0d0f1a"/><rect x="1" y="3" width="1" height="1" fill="#0d0f1a"/><rect x="2" y="3" width="8" height="1" fill="#3a9a1a"/><rect x="10" y="3" width="1" height="1" fill="#0d0f1a"/><rect x="1" y="4" width="1" height="1" fill="#0d0f1a"/><rect x="2" y="4" width="2" height="1" fill="#3a9a1a"/><rect x="4" y="4" width="1" height="1" fill="#1a5a0a"/><rect x="5" y="4" width="2" height="1" fill="#3a9a1a"/><rect x="7" y="4" width="1" height="1" fill="#1a5a0a"/><rect x="8" y="4" width="2" height="1" fill="#3a9a1a"/><rect x="10" y="4" width="1" height="1" fill="#0d0f1a"/><rect x="1" y="5" width="1" height="1" fill="#0d0f1a"/><rect x="2" y="5" width="8" height="1" fill="#3a9a1a"/><rect x="10" y="5" width="1" height="1" fill="#0d0f1a"/><rect x="2" y="6" width="8" height="1" fill="#0d0f1a"/></svg>