<svg xmlns="http://www.w3.org/2000/svg" viewBox="0 0 14 16" shape-rendering="crispEdges"><rect x="1" y="0" width="2" height="1" fill="#0d0f1a"/><rect x="7" y="0" width="3" height="1" fill="#0d0f1a"/><rect x="2" y="1" width="1" height="1" fill="#0d0f1a"/><rect x="3" y="1" width="1" height="1" fill="#6a6a6a"/><rect x="4" y="1" width="1" height="1" fill="#0d0f1a"/><rect x="7" y="1" width="1" height="1" fill="#0d0f1a"/><rect x="8" y="1" width="2" height="1" fill="#6a6a6a"/><rect x="10" y="1" width="1" height="1" fill="#0d0f1a"/><rect x="2" y="2" width="1" height="1" fill="#0d0f1a"/><rect x="3" y="2" width="8" height="1" fill="#6a6a6a"/><rect x="11" y="2" width="1" height="1" fill="#0d0f1a"/><rect x="2" y="3" width="1" height="1" fill="#0d0f1a"/><rect x="3" y="3" width="1" height="1" fill="#6a6a6a"/><rect x="4" y="3" width="1" height="1" fill="#0a0a0a"/><rect x="5" y="3" width="4" height="1" fill="#6a6a6a"/><rect x="9" y="3" width="1" height="1" fill="#0a0a0a"/><rect x="10" y="3" width="1" height="1" fill="#6a6a6a"/><rect x="11" y="3" width="1" height="1" fill="#0d0f1a"/><rect x="2" y="4" width="1" height="1" fill="#0d0f1a"/><rect x="3" y="4" width="3" height="1" fill="#6a6a6a"/><rect x="6" y="4" width="2" height="1" fill="#40a0f0"/><rect x="8" y="4" width="3" height="1" fill="#6a6a6a"/><rect x="11" y="4" width="1" height="1" fill="#0d0f1a"/><rect x="2" y="5" width="1" height="1" fill="#0d0f1a"/><rect x="3" y="5" width="8" height="1" fill="#6a6a6a"/><rect x="11" y="5" width="1" height="1" fill="#0d0f1a"/><rect x="2" y="6" width="1" height="1" fill="#0d0f1a"/><rect x="3" y="6" width="2" height="1" fill="#6a6a6a"/><rect x="5" y="6" width="1" height="1" fill="#3a3a3a"/><rect x="6" y="6" width="2" height="1" fill="#c0c0c0"/><rect x="8" y="6" width="1" height="1" fill="#3a3a3a"/><rect x="9" y="6" width="2" height="1" fill="#6a6a6a"/><rect x="11" y="6" width="1" height="1" fill="#0d0f1a"/><rect x="2" y="7" width="1" height="1" fill="#0d0f1a"/><rect x="3" y="7" width="8" height="1" fill="#6a6a6a"/><rect x="11" y="7" width="1" height="1" fill="#0d0f1a"/><rect x="2" y="8" width="1" height="1" fill="#0d0f1a"/><rect x="3" y="8" width="1" height="1" fill="#6a6a6a"/><rect x="4" y="8" width="1" height="1" fill="#3a3a3a"/><rect x="5" y="8" width="4" height="1" fill="#6a6a6a"/><rect x="9" y="8" width="1" height="1" fill="#3a3a3a"/><rect x="10" y="8" width="1" height="1" fill="#6a6a6a"/><rect x="11" y="8" width="1" height="1" fill="#0d0f1a"/><rect x="2" y="9" width="1" height="1" fill="#0d0f1a"/><rect x="3" y="9" width="8" height="1" fill="#6a6a6a"/><rect x="11" y="9" width="1" height="1" fill="#0d0f1a"/><rect x="3" y="10" width="1" height="1" fill="#0d0f1a"/><rect x="4" y="10" width="6" height="1" fill="#6a6a6a"/><rect x="10" y="10" width="1" height="1" fill="#0d0f1a"/><rect x="3" y="11" width="1" height="1" fill="#0d0f1a"/><rect x="4" y="11" width="1" height="1" fill="#6a6a6a"/><rect x="5" y="11" width="1" height="1" fill="#3a3a3a"/><rect x="6" y="11" width="2" height="1" fill="#6a6a6a"/><rect x="8" y="11" width="1" height="1" fill="#3a3a3a"/><rect x="9" y="11" width="1" height="1" fill="#6a6a6a"/><rect x="10" y="11" width="1" height="1" fill="#0d0f1a"/><rect x="3" y="12" width="1" height="1" fill="#0d0f1a"/><rect x="4" y="12" width="6" height="1" fill="#6a6a6a"/><rect x="10" y="12" width="1" height="1" fill="#0d0f1a"/><rect x="3" y="13" width="3" height="1" fill="#0d0f1a"/><rect x="8" y="13" width="3" height="1" fill="#0d0f1a"/></svg>