<svg xmlns="http://www.w3.org/2000/svg" viewBox="0 0 16 10" shape-rendering="crispEdges"><rect x="0" y="0" width="1" height="1" fill="#0d0f1a"/><rect x="1" y="0" width="5" height="1" fill="#5a1a7a"/><rect x="6" y="0" width="1" height="1" fill="#0d0f1a"/><rect x="9" y="0" width="1" height="1" fill="#0d0f1a"/><rect x="10" y="0" width="5" height="1" fill="#5a1a7a"/><rect x="15" y="0" width="1" height="1" fill="#0d0f1a"/><rect x="2" y="1" width="1" height="1" fill="#0d0f1a"/><rect x="3" y="1" width="3" height="1" fill="#5a1a7a"/><rect x="6" y="1" width="1" height="1" fill="#0d0f1a"/><rect x="9" y="1" width="1" height="1" fill="#0d0f1a"/><rect x="10" y="1" width="3" height="1" fill="#5a1a7a"/><rect x="13" y="1" width="1" height="1" fill="#0d0f1a"/><rect x="3" y="2" width="1" height="1" fill="#0d0f1a"/><rect x="4" y="2" width="2" height="1" fill="#5a1a7a"/><rect x="6" y="2" width="1" height="1" fill="#0d0f1a"/><rect x="9" y="2" width="1" height="1" fill="#0d0f1a"/><rect x="10" y="2" width="2" height="1" fill="#5a1a7a"/><rect x="12" y="2" width="1" height="1" fill="#0d0f1a"/><rect x="4" y="3" width="8" height="1" fill="#0d0f1a"/><rect x="4" y="4" width="1" height="1" fill="#0d0f1a"/><rect x="5" y="4" width="2" height="1" fill="#5a1a7a"/><rect x="7" y="4" width="2" height="1" fill="#20d080"/><rect x="9" y="4" width="2" height="1" fill="#5a1a7a"/><rect x="11" y="4" width="1" height="1" fill="#0d0f1a"/><rect x="4" y="5" width="1" height="1" fill="#0d0f1a"/><rect x="5" y="5" width="2" height="1" fill="#5a1a7a"/><rect x="7" y="5" width="2" height="1" fill="#050810"/><rect x="9" y="5" width="2" height="1" fill="#5a1a7a"/><rect x="11" y="5" width="1" height="1" fill="#0d0f1a"/><rect x="4" y="6" width="8" height="1" fill="#0d0f1a"/></svg>