<svg xmlns="http://www.w3.org/2000/svg" viewBox="0 0 14 24" shape-rendering="crispEdges"><rect x="2" y="0" width="1" height="1" fill="#0d0f1a"/><rect x="3" y="0" width="8" height="1" fill="#f0c030"/><rect x="11" y="0" width="1" height="1" fill="#0d0f1a"/><rect x="2" y="1" width="1" height="1" fill="#f0c030"/><rect x="11" y="1" width="1" height="1" fill="#f0c030"/><rect x="4" y="2" width="1" height="1" fill="#0d0f1a"/><rect x="5" y="2" width="4" height="1" fill="#f1c27d"/><rect x="9" y="2" width="1" height="1" fill="#0d0f1a"/><rect x="3" y="3" width="1" height="1" fill="#0d0f1a"/><rect x="4" y="3" width="1" height="1" fill="#2860c8"/><rect x="5" y="3" width="4" height="1" fill="#f1c27d"/><rect x="9" y="3" width="1" height="1" fill="#2860c8"/><rect x="10" y="3" width="1" height="1" fill="#0d0f1a"/><rect x="3" y="4" width="1" height="1" fill="#0d0f1a"/><rect x="4" y="4" width="1" height="1" fill="#2860c8"/><rect x="5" y="4" width="1" height="1" fill="#f1c27d"/><rect x="6" y="4" width="2" height="1" fill="#2a1a0a"/><rect x="8" y="4" width="1" height="1" fill="#f1c27d"/><rect x="9" y="4" width="1" height="1" fill="#2860c8"/><rect x="10" y="4" width="1" height="1" fill="#0d0f1a"/><rect x="3" y="5" width="1" height="1" fill="#0d0f1a"/><rect x="4" y="5" width="1" height="1" fill="#2860c8"/><rect x="5" y="5" width="4" height="1" fill="#f1c27d"/><rect x="9" y="5" width="1" height="1" fill="#2860c8"/><rect x="10" y="5" width="1" height="1" fill="#0d0f1a"/><rect x="2" y="6" width="1" height="1" fill="#0d0f1a"/><rect x="3" y="6" width="1" height="1" fill="#1840a0"/><rect x="4" y="6" width="2" height="1" fill="#2860c8"/><rect x="6" y="6" width="2" height="1" fill="#f0c030"/><rect x="8" y="6" width="2" height="1" fill="#2860c8"/><rect x="10" y="6" width="1" height="1" fill="#1840a0"/><rect x="11" y="6" width="1" height="1" fill="#0d0f1a"/><rect x="2" y="7" width="1" height="1" fill="#0d0f1a"/><rect x="3" y="7" width="8" height="1" fill="#2860c8"/><rect x="11" y="7" width="1" height="1" fill="#0d0f1a"/><rect x="2" y="8" width="1" height="1" fill="#0d0f1a"/><rect x="3" y="8" width="2" height="1" fill="#2860c8"/><rect x="5" y="8" width="1" height="1" fill="#0a2060"/><rect x="6" y="8" width="2" height="1" fill="#2860c8"/><rect x="8" y="8" width="1" height="1" fill="#0a2060"/><rect x="9" y="8" width="2" height="1" fill="#2860c8"/><rect x="11" y="8" width="1" height="1" fill="#0d0f1a"/><rect x="2" y="9" width="1" height="1" fill="#0d0f1a"/><rect x="3" y="9" width="8" height="1" fill="#2860c8"/><rect x="11" y="9" width="1" height="1" fill="#0d0f1a"/><rect x="1" y="10" width="1" height="1" fill="#0d0f1a"/><rect x="2" y="10" width="2" height="1" fill="#2860c8"/><rect x="4" y="10" width="1" height="1" fill="#1840a0"/><rect x="5" y="10" width="1" height="1" fill="#f0c030"/><rect x="6" y="10" width="2" height="1" fill="#2860c8"/><rect x="8" y="10" width="1" height="1" fill="#f0c030"/><rect x="9" y="10" width="1" height="1" fill="#1840a0"/><rect x="10" y="10" width="2" height="1" fill="#2860c8"/><rect x="12" y="10" width="1" height="1" fill="#0d0f1a"/><rect x="1" y="11" width="1" height="1" fill="#0d0f1a"/><rect x="2" y="11" width="10" height="1" fill="#2860c8"/><rect x="12" y="11" width="1" height="1" fill="#0d0f1a"/><rect x="1" y="12" width="1" height="1" fill="#0d0f1a"/><rect x="2" y="12" width="2" height="1" fill="#2860c8"/><rect x="4" y="12" width="1" height="1" fill="#0a2060"/><rect x="5" y="12" width="4" height="1" fill="#2860c8"/><rect x="9" y="12" width="1" height="1" fill="#0a2060"/><rect x="10" y="12" width="2" height="1" fill="#2860c8"/><rect x="12" y="12" width="1" height="1" fill="#0d0f1a"/><rect x="1" y="13" width="1" height="1" fill="#0d0f1a"/><rect x="2" y="13" width="10" height="1" fill="#2860c8"/><rect x="12" y="13" width="1" height="1" fill="#0d0f1a"/><rect x="2" y="14" width="1" height="1" fill="#0d0f1a"/><rect x="3" y="14" width="2" height="1" fill="#2860c8"/><rect x="5" y="14" width="1" height="1" fill="#1840a0"/><rect x="6" y="14" width="2" height="1" fill="#2860c8"/><rect x="8" y="14" width="1" height="1" fill="#1840a0"/><rect x="9" y="14" width="2" height="1" fill="#2860c8"/><rect x="11" y="14" width="1" height="1" fill="#0d0f1a"/><rect x="2" y="15" width="1" height="1" fill="#0d0f1a"/><rect x="3" y="15" width="8" height="1" fill="#2860c8"/><rect x="11" y="15" width="1" height="1" fill="#0d0f1a"/><rect x="3" y="16" width="1" height="1" fill="#0d0f1a"/><rect x="4" y="16" width="6" height="1" fill="#2860c8"/><rect x="10" y="16" width="1" height="1" fill="#0d0f1a"/><rect x="3" y="17" width="1" height="1" fill="#0d0f1a"/><rect x="4" y="17" width="2" height="1" fill="#2860c8"/><rect x="6" y="17" width="2" height="1" fill="#0a2060"/><rect x="8" y="17" width="2" height="1" fill="#2860c8"/><rect x="10" y="17" width="1" height="1" fill="#0d0f1a"/><rect x="3" y="18" width="1" height="1" fill="#0d0f1a"/><rect x="4" y="18" width="6" height="1" fill="#2860c8"/><rect x="10" y="18" width="1" height="1" fill="#0d0f1a"/><rect x="4" y="19" width="1" height="1" fill="#0d0f1a"/><rect x="5" y="19" width="4" height="1" fill="#2860c8"/><rect x="9" y="19" width="1" height="1" fill="#0d0f1a"/><rect x="4" y="20" width="1" height="1" fill="#0d0f1a"/><rect x="5" y="20" width="4" height="1" fill="#1840a0"/><rect x="9" y="20" width="1" height="1" fill="#0d0f1a"/><rect x="4" y="21" width="6" height="1" fill="#0d0f1a"/></svg>